<svg width="326" height="326" xmlns="http://www.w3.org/2000/svg" xmlns:xlink="http://www.w3.org/1999/xlink" xml:space="preserve" overflow="hidden"><g transform="translate(-27 -245)"><path d="M289.837 327.179 261.312 285.75 261.312 273.525C261.312 270.469 257.577 269.11 255.54 271.148L208.677 314.954C203.244 320.048 200.188 327.179 200.188 334.65L200.188 336.688C200.188 365.552 122.083 377.438 122.083 469.125 122.083 481.35 122.762 491.877 124.46 500.706 123.781 500.027 123.102 499.348 122.083 498.669 114.273 491.198 105.104 474.558 105.104 438.562 105.104 425.998 111.217 413.094 117.329 400.869 126.837 381.173 137.704 358.76 119.027 339.744 114.952 335.669 108.5 335.669 104.765 339.744 100.69 343.819 100.69 350.271 104.765 354.006 112.575 361.817 109.179 370.985 99.3312 391.7 92.2 405.623 84.7292 421.583 84.7292 438.562 84.7292 473.54 92.8792 499.008 108.5 513.95 116.65 521.76 125.479 524.817 131.592 526.175 138.044 539.758 145.854 543.833 149.25 543.833L190 543.833C195.773 543.833 200.188 539.419 200.188 533.646 200.188 528.552 196.452 524.137 191.358 523.458L179.812 523.458C192.717 516.327 203.583 501.725 203.583 475.917 203.583 453.504 199.169 444.335 184.227 436.185 181.85 434.827 180.831 431.771 182.19 429.394 183.548 427.017 186.604 425.998 188.981 427.356 209.696 438.223 213.771 453.504 213.771 475.917 213.771 488.142 211.394 499.008 206.979 508.177L206.979 533.646C206.979 539.419 211.394 543.833 217.167 543.833 222.94 543.833 227.354 539.419 227.354 533.646L227.354 502.404C229.731 499.688 232.108 496.631 234.146 493.235L234.146 533.646C234.146 539.419 238.56 543.833 244.333 543.833 250.106 543.833 254.521 539.419 254.521 533.646L254.521 443.317C256.898 433.129 257.917 424.3 257.917 418.188 257.917 391.36 251.125 388.644 251.125 374.042 251.125 366.571 257.237 360.458 264.708 360.458 279.65 360.458 291.875 348.233 291.875 333.292 291.875 330.915 291.196 328.877 289.837 327.179Z" stroke="#4F81BD" stroke-width="3.39583" fill="#4F81BD"/></g></svg>